<!DOCTYPE svg PUBLIC "-//W3C//DTD SVG 1.1//EN" "http://www.w3.org/Graphics/SVG/1.1/DTD/svg11.dtd">
<!-- Uploaded to: SVG Repo, www.svgrepo.com, Transformed by: SVG Repo Mixer Tools -->
<svg width="254px" height="254px" viewBox="0 0 192.00 192.00" xmlns="http://www.w3.org/2000/svg" fill="#ddd831" transform="matrix(1, 0, 0, 1, 0, 0)" stroke="#ddd831">
<g id="SVGRepo_bgCarrier" stroke-width="0"/>
<g id="SVGRepo_tracerCarrier" stroke-linecap="round" stroke-linejoin="round"/>
<g id="SVGRepo_iconCarrier">
<path d="M70.427 98.004v6.604M60.84 170.07l20.727-50.03 6.847 19.067L99.947 96.96l8.137 10.466 9.694-23.685 6.748 9.217L169.99 31.51M49.308 57.029h21.79s9.43.15 9.43 10.095c0 9.944-9.276 10.244-9.276 10.244H57.66" style="fill:none;stroke:#000000;stroke-width:12;stroke-linecap:round;stroke-linejoin:round;stroke-miterlimit:57.5;paint-order:stroke markers fill"/>
<path d="M49.308 97.689h21.789s9.431-.15 9.431-10.095c0-9.944-9.276-10.244-9.276-10.244H57.66m.096-28.297v55.555m12.671-55.6v7.007" style="fill:none;stroke:#000000;stroke-width:12;stroke-linecap:round;stroke-linejoin:round;stroke-miterlimit:57.5;paint-order:stroke markers fill"/>
</g>
</svg>